<svg xmlns="http://www.w3.org/2000/svg" viewBox="0 0 197.6 195.66"><g fill="#fff"><path d="M99,0h-1a20,20,0,0,0,.23,40H99A20,20,0,0,0,99,0ZM47.44,18.8a20,20,0,0,0-12.88,4.71l-.76.65A20,20,0,1,0,59.89,54.48l.45-.39A20,20,0,0,0,47.44,18.8ZM20.11,66.36A20,20,0,0,0,.42,83c0,.33-.11.66-.16,1A20,20,0,0,0,16.82,106.9a20.61,20.61,0,0,0,3.21.25A20,20,0,0,0,39.75,90.33c0-.2.06-.39.1-.59A20,20,0,0,0,23.51,66.65a19.68,19.68,0,0,0-3.4-.29Zm9.76,54a20,20,0,0,0-17.24,30.11l.09.16.43.72a20,20,0,0,0,34.3-20.58l-.3-.52a20,20,0,0,0-17.28-9.89Zm42.28,35a20,20,0,0,0-6.72,38.84h0l.93.33a20,20,0,0,0,13-37.82l-.57-.2a19.9,19.9,0,0,0-6.7-1.16Zm55.61-.72a20,20,0,0,0-7.19,1.34l-.56.21a20,20,0,1,0,14,37.47l1-.38a20,20,0,0,0-7.26-38.64Zm41.36-36.13a20,20,0,0,0-17.53,10.35l-.3.53a20,20,0,0,0,34.83,19.67l0,0v0l0,0,0,0h0l.09-.15h0l0,0,0,0h0c0-.09.1-.17.14-.26h0l0-.05,0,0h0l.09-.17a20,20,0,0,0-17.5-29.66Zm8.35-54.23a19.52,19.52,0,0,0-3.92.39,20,20,0,0,0-15.72,23.51c0,.19.08.39.11.58a20,20,0,0,0,19.63,16.31,19.6,19.6,0,0,0,3.72-.35,20,20,0,0,0,16-23.34v0h0v-.15l0-.07h0v-.07h0c0-.17-.06-.33-.1-.5l0-.15a20,20,0,0,0-19.59-16.11ZM148.9,17.47a20,20,0,0,0-12.5,35.62l.47.38a20,20,0,0,0,25.3-31l-.5-.41,0,0h0l-.24-.2a20,20,0,0,0-12.48-4.38Z"/><circle cx="98.98" cy="100" r="20"/><path d="M99,13.2a86.8,86.8,0,1,0,86.8,86.8A86.8,86.8,0,0,0,99,13.2ZM99,155a55,55,0,1,1,55-55A55,55,0,0,1,99,155Z"/></g></svg>